<svg width="108" height="31" viewBox="0 0 108 31" fill="none" xmlns="http://www.w3.org/2000/svg">
<path d="M44.8222 24.6432H35.8687V23.3997C37.5599 23.3002 37.7588 23.1178 37.7588 21.6919V4.38167C37.7588 2.95573 37.5599 2.77334 35.8687 2.67386V1.43031H45.6181C50.6254 1.43031 53.1955 3.85109 53.1955 8.52684V8.59316C53.1955 13.2192 50.6254 15.6399 45.6181 15.6399H41.8709V21.4929C41.8709 23.1344 42.1196 23.3002 44.8222 23.3997V24.6432ZM41.8709 3.00547V14.0979H44.9217C47.8233 14.0979 49.1498 12.5394 49.1498 9.05742V8.07916C49.1498 4.58064 47.8233 3.00547 44.9217 3.00547H41.8709Z" fill="#0C3237"/>
<path d="M57.2932 5.06148C55.801 5.06148 54.9222 4.31535 54.9222 3.03863C54.9222 1.7785 55.801 1.01579 57.2932 1.01579C58.8021 1.01579 59.6643 1.7785 59.6643 3.03863C59.6643 4.31535 58.8021 5.06148 57.2932 5.06148ZM64.025 5.06148C62.5327 5.06148 61.654 4.31535 61.654 3.03863C61.654 1.7785 62.5327 1.01579 64.025 1.01579C65.5338 1.01579 66.4126 1.7785 66.4126 3.03863C66.4126 4.31535 65.5338 5.06148 64.025 5.06148ZM57.7078 25.0412C54.8559 25.0412 53.2476 23.4826 53.2476 20.9789V20.9126C53.2476 17.5467 56.0165 16.1705 59.5814 15.3249L63.1462 14.4793V12.5559C63.1462 9.78697 62.0519 8.59316 59.598 8.59316C57.542 8.59316 56.1492 9.57142 56.1492 10.4668C56.1492 11.3953 58.2218 10.6657 58.2218 12.4067C58.2218 13.6005 57.2767 14.2472 55.8839 14.2472C54.2756 14.2472 53.4465 13.4016 53.4465 12.0419C53.4465 9.28955 56.7627 6.83561 61.256 6.83561C65.1525 6.83561 67.1753 8.69264 67.1753 12.6057V21.5758C67.1753 22.7862 67.822 23.1012 68.8997 22.4214L68.8002 23.5987C68.2531 24.5272 67.2914 25.0412 66.0976 25.0412C63.8924 25.0412 63.1296 23.665 63.7597 20.3157L63.4281 20.2162C62.4996 23.3831 60.6923 25.0412 57.7078 25.0412ZM59.4819 22.7365C61.6705 22.7365 63.1462 20.5147 63.1462 17.2648V15.6731L61.0902 16.2203C59.0011 16.7508 57.3596 17.9115 57.3596 20.1665V20.2825C57.3596 21.8909 58.172 22.7365 59.4819 22.7365Z" fill="#0C3237"/>
<path d="M76.8511 24.6432H69.0251V23.3997C70.7329 23.3002 70.9153 23.1178 70.9153 21.6919V11.7601C70.9153 10.3341 70.7329 10.1352 69.0251 10.0523V8.79213C71.4624 8.62632 72.5402 8.29471 73.3195 7.03458H74.9609C74.9112 8.41077 74.7122 10.0025 74.2646 12.4896L74.5962 12.5725C75.6076 8.54342 77.7631 6.93509 80.4989 6.93509C83.4337 6.93509 84.9591 8.46051 84.9591 11.5611V21.6919C84.9591 23.1178 85.1581 23.3002 86.8493 23.3997V24.6432H79.0398V23.3997C80.7476 23.3002 80.93 23.1178 80.93 21.6919V11.843C80.93 9.85329 80.1507 8.94135 78.8242 8.94135C76.4035 8.94135 74.9609 11.9922 74.9609 15.2254V21.6919C74.9609 23.1178 75.1433 23.3002 76.8511 23.3997V24.6432Z" fill="#0C3237"/>
<path d="M93.5458 20.6141L96.4475 21.0121C99.3491 21.41 101.985 22.1893 101.985 25.5718C101.985 29.2527 99.4983 30.8113 94.0101 30.8113C88.8535 30.8113 86.4659 29.5511 86.4659 26.9148C86.4659 25.1572 87.6431 24.0961 90.1302 23.7645V23.5323C88.3063 22.9852 87.0462 21.9738 87.0462 20.2991C87.0462 18.6742 88.1737 17.6794 90.18 17.4307V17.1819C88.4721 16.3032 87.5934 14.7114 87.5934 12.4067C87.5934 8.70922 89.8815 6.85219 94.2256 6.85219C95.2205 6.85219 96.0993 6.95167 96.8785 7.15064C96.2982 4.28219 97.6744 2.07696 99.8465 2.07696C101.156 2.07696 102.002 2.88941 102.002 4.13296C102.002 5.32677 101.239 6.10606 100.162 6.10606C98.9677 6.10606 98.8516 5.06148 98.3211 5.06148C97.6744 5.06148 97.4589 6.08948 97.7076 7.39935C99.7802 8.2118 100.841 9.86987 100.841 12.4067C100.841 16.1208 98.5698 17.9778 94.2256 17.9778C93.0816 17.9778 92.0702 17.8452 91.208 17.5965C90.2794 17.7788 89.8649 18.1768 89.8649 18.7737C89.8649 19.6856 90.6276 20.1996 93.5458 20.6141ZM94.2256 7.96309C92.4018 7.96309 91.6059 9.12374 91.6059 12.4067C91.6059 15.7228 92.4018 16.8669 94.2256 16.8669C96.0329 16.8669 96.8288 15.7228 96.8288 12.4067C96.8288 9.12374 96.0329 7.96309 94.2256 7.96309ZM94.3085 29.5014C97.5584 29.5014 99.0506 28.606 99.0506 26.7158C99.0506 25.1075 97.691 24.6267 94.9054 24.2785L92.1199 23.9303C91.8214 23.8971 91.523 23.8474 91.2411 23.7976C89.9478 24.3282 89.4836 25.1241 89.4836 26.3345C89.4836 28.4071 90.8763 29.5014 94.3085 29.5014Z" fill="#0C3237"/>
<path d="M105.299 24.9583C103.773 24.9583 102.695 23.8971 102.695 22.4214C102.695 20.9292 103.773 19.868 105.299 19.868C106.791 19.868 107.869 20.9292 107.869 22.4214C107.869 23.8971 106.791 24.9583 105.299 24.9583Z" fill="#0C3237"/>
<ellipse cx="15.9934" cy="19.2292" rx="2.03008" ry="12.5403" transform="rotate(60 15.9934 19.2292)" fill="#0C3237"/>
<ellipse cx="11.4579" cy="11.3783" rx="2.29812" ry="12.5403" transform="rotate(44.969 11.4579 11.3783)" fill="#0C3237"/>
</svg>
