<svg width="102" height="31" viewBox="0 0 102 31" fill="none" xmlns="http://www.w3.org/2000/svg">
<path d="M43.9536 24.2659H35V23.0223C36.6912 22.9228 36.8902 22.7404 36.8902 21.3145V4.00427C36.8902 2.57834 36.6912 2.39595 35 2.29646V1.05291H44.7494C49.7568 1.05291 52.3268 3.47369 52.3268 8.14944V8.21576C52.3268 12.8418 49.7568 15.2625 44.7494 15.2625H41.0022V21.1155C41.0022 22.757 41.2509 22.9228 43.9536 23.0223V24.2659ZM41.0022 2.62808V13.7205H44.053C46.9547 13.7205 48.2811 12.162 48.2811 8.68002V7.70176C48.2811 4.20324 46.9547 2.62808 44.053 2.62808H41.0022Z" fill="white"/>
<path d="M56.4246 4.68408C54.9323 4.68408 54.0536 3.93795 54.0536 2.66124C54.0536 1.40111 54.9323 0.638397 56.4246 0.638397C57.9334 0.638397 58.7956 1.40111 58.7956 2.66124C58.7956 3.93795 57.9334 4.68408 56.4246 4.68408ZM63.1563 4.68408C61.6641 4.68408 60.7853 3.93795 60.7853 2.66124C60.7853 1.40111 61.6641 0.638397 63.1563 0.638397C64.6652 0.638397 65.544 1.40111 65.544 2.66124C65.544 3.93795 64.6652 4.68408 63.1563 4.68408ZM56.8391 24.6638C53.9872 24.6638 52.3789 23.1052 52.3789 20.6015V20.5352C52.3789 17.1693 55.1479 15.7931 58.7127 14.9475L62.2776 14.1019V12.1785C62.2776 9.40957 61.1832 8.21576 58.7293 8.21576C56.6733 8.21576 55.2805 9.19402 55.2805 10.0894C55.2805 11.0179 57.3531 10.2883 57.3531 12.0293C57.3531 13.2231 56.408 13.8698 55.0152 13.8698C53.4069 13.8698 52.5779 13.0242 52.5779 11.6645C52.5779 8.91215 55.894 6.45821 60.3874 6.45821C64.2838 6.45821 66.3067 8.31525 66.3067 12.2283V21.1984C66.3067 22.4088 66.9533 22.7239 68.0311 22.044L67.9316 23.2213C67.3844 24.1498 66.4227 24.6638 65.2289 24.6638C63.0237 24.6638 62.261 23.2876 62.8911 19.9383L62.5594 19.8388C61.6309 23.0057 59.8236 24.6638 56.8391 24.6638ZM58.6132 22.3591C60.8019 22.3591 62.2776 20.1373 62.2776 16.8875V15.2957L60.2216 15.8429C58.1324 16.3735 56.4909 17.5341 56.4909 19.7891V19.9051C56.4909 21.5135 57.3034 22.3591 58.6132 22.3591Z" fill="white"/>
<path d="M75.9825 24.2659H68.1564V23.0223C69.8642 22.9228 70.0466 22.7404 70.0466 21.3145V11.3827C70.0466 9.95673 69.8642 9.75777 68.1564 9.67486V8.41473C70.5938 8.24893 71.6715 7.91731 72.4508 6.65718H74.0923C74.0426 8.03338 73.8436 9.62512 73.3959 12.1122L73.7275 12.1951C74.7389 8.16602 76.8944 6.5577 79.6302 6.5577C82.565 6.5577 84.0904 8.08312 84.0904 11.1837V21.3145C84.0904 22.7404 84.2894 22.9228 85.9806 23.0223V24.2659H78.1711V23.0223C79.8789 22.9228 80.0613 22.7404 80.0613 21.3145V11.4656C80.0613 9.47589 79.282 8.56396 77.9556 8.56396C75.5348 8.56396 74.0923 11.6148 74.0923 14.848V21.3145C74.0923 22.7404 74.2747 22.9228 75.9825 23.0223V24.2659Z" fill="white"/>
<path d="M92.6772 20.2367L95.5788 20.6347C98.4804 21.0326 101.117 21.8119 101.117 25.1944C101.117 28.8753 98.6296 30.4339 93.1414 30.4339C87.9848 30.4339 85.5972 29.1737 85.5972 26.5374C85.5972 24.7799 86.7745 23.7187 89.2616 23.3871V23.1549C87.4377 22.6078 86.1776 21.5964 86.1776 19.9217C86.1776 18.2968 87.305 17.302 89.3113 17.0533V16.8046C87.6035 15.9258 86.7247 14.334 86.7247 12.0293C86.7247 8.33183 89.0128 6.47479 93.357 6.47479C94.3518 6.47479 95.2306 6.57428 96.0099 6.77325C95.4296 3.90479 96.8058 1.69956 98.9778 1.69956C100.288 1.69956 101.133 2.51201 101.133 3.75556C101.133 4.94937 100.371 5.72866 99.2929 5.72866C98.0991 5.72866 97.983 4.68408 97.4524 4.68408C96.8058 4.68408 96.5902 5.71208 96.8389 7.02196C98.9115 7.83441 99.9727 9.49248 99.9727 12.0293C99.9727 15.7434 97.7011 17.6004 93.357 17.6004C92.2129 17.6004 91.2015 17.4678 90.3393 17.2191C89.4108 17.4015 88.9963 17.7994 88.9963 18.3963C88.9963 19.3082 89.759 19.8222 92.6772 20.2367ZM93.357 7.5857C91.5331 7.5857 90.7372 8.74635 90.7372 12.0293C90.7372 15.3455 91.5331 16.4895 93.357 16.4895C95.1643 16.4895 95.9602 15.3455 95.9602 12.0293C95.9602 8.74635 95.1643 7.5857 93.357 7.5857ZM93.4399 29.124C96.6897 29.124 98.182 28.2286 98.182 26.3384C98.182 24.7301 96.8223 24.2493 94.0368 23.9011L91.2512 23.5529C90.9528 23.5197 90.6543 23.47 90.3725 23.4202C89.0792 23.9508 88.6149 24.7467 88.6149 25.9571C88.6149 28.0297 90.0077 29.124 93.4399 29.124Z" fill="white"/>
<ellipse cx="15.1247" cy="18.8518" rx="2.03008" ry="12.5403" transform="rotate(60 15.1247 18.8518)" fill="white"/>
<ellipse cx="10.5892" cy="11.0009" rx="2.29812" ry="12.5403" transform="rotate(44.969 10.5892 11.0009)" fill="white"/>
</svg>
