<svg width="102" height="31" viewBox="0 0 102 31" fill="none" xmlns="http://www.w3.org/2000/svg">
<path d="M44.4241 24.7177H35.4706V23.4741C37.1618 23.3746 37.3607 23.1923 37.3607 21.7663V4.4561C37.3607 3.03016 37.1618 2.84778 35.4706 2.74829V1.50474H45.22C50.2273 1.50474 52.7974 3.92552 52.7974 8.60127V8.66759C52.7974 13.2936 50.2273 15.7144 45.22 15.7144H41.4728V21.5674C41.4728 23.2088 41.7215 23.3746 44.4241 23.4741V24.7177ZM41.4728 3.07991V14.1724H44.5236C47.4252 14.1724 48.7517 12.6138 48.7517 9.13185V8.15359C48.7517 4.65507 47.4252 3.07991 44.5236 3.07991H41.4728Z" fill="#0C3237"/>
<path d="M56.8951 5.13591C55.4029 5.13591 54.5241 4.38978 54.5241 3.11307C54.5241 1.85294 55.4029 1.09023 56.8951 1.09023C58.404 1.09023 59.2662 1.85294 59.2662 3.11307C59.2662 4.38978 58.404 5.13591 56.8951 5.13591ZM63.6269 5.13591C62.1346 5.13591 61.2559 4.38978 61.2559 3.11307C61.2559 1.85294 62.1346 1.09023 63.6269 1.09023C65.1357 1.09023 66.0145 1.85294 66.0145 3.11307C66.0145 4.38978 65.1357 5.13591 63.6269 5.13591ZM57.3097 25.1156C54.4578 25.1156 52.8495 23.557 52.8495 21.0534V20.987C52.8495 17.6212 55.6184 16.245 59.1833 15.3993L62.7481 14.5537V12.6304C62.7481 9.8614 61.6538 8.66759 59.1999 8.66759C57.1439 8.66759 55.7511 9.64585 55.7511 10.5412C55.7511 11.4697 57.8237 10.7402 57.8237 12.4811C57.8237 13.675 56.8786 14.3216 55.4858 14.3216C53.8775 14.3216 53.0484 13.476 53.0484 12.1164C53.0484 9.36398 56.3646 6.91004 60.8579 6.91004C64.7544 6.91004 66.7772 8.76708 66.7772 12.6801V21.6503C66.7772 22.8606 67.4239 23.1757 68.5016 22.4959L68.4021 23.6731C67.855 24.6016 66.8933 25.1156 65.6995 25.1156C63.4943 25.1156 62.7315 23.7394 63.3616 20.3901L63.03 20.2906C62.1015 23.4575 60.2942 25.1156 57.3097 25.1156ZM59.0838 22.8109C61.2724 22.8109 62.7481 20.5891 62.7481 17.3393V15.7475L60.6921 16.2947C58.603 16.8253 56.9615 17.9859 56.9615 20.2409V20.357C56.9615 21.9653 57.7739 22.8109 59.0838 22.8109Z" fill="#0C3237"/>
<path d="M76.453 24.7177H68.627V23.4741C70.3348 23.3746 70.5172 23.1923 70.5172 21.7663V11.8345C70.5172 10.4086 70.3348 10.2096 68.627 10.1267V8.86656C71.0643 8.70075 72.1421 8.36914 72.9214 7.10901H74.5628C74.5131 8.4852 74.3141 10.0769 73.8665 12.564L74.1981 12.647C75.2095 8.61785 77.365 7.00952 80.1008 7.00952C83.0356 7.00952 84.561 8.53495 84.561 11.6355V21.7663C84.561 23.1923 84.76 23.3746 86.4512 23.4741V24.7177H78.6417V23.4741C80.3495 23.3746 80.5319 23.1923 80.5319 21.7663V11.9174C80.5319 9.92772 79.7526 9.01579 78.4261 9.01579C76.0054 9.01579 74.5628 12.0666 74.5628 15.2999V21.7663C74.5628 23.1923 74.7452 23.3746 76.453 23.4741V24.7177Z" fill="#0C3237"/>
<path d="M93.1477 20.6886L96.0494 21.0865C98.951 21.4844 101.587 22.2637 101.587 25.6462C101.587 29.3271 99.1002 30.8857 93.612 30.8857C88.4554 30.8857 86.0678 29.6256 86.0678 26.9892C86.0678 25.2317 87.245 24.1705 89.7321 23.8389V23.6068C87.9082 23.0596 86.6481 22.0482 86.6481 20.3735C86.6481 18.7486 87.7756 17.7538 89.7819 17.5051V17.2564C88.074 16.3776 87.1953 14.7859 87.1953 12.4811C87.1953 8.78366 89.4834 6.92662 93.8275 6.92662C94.8224 6.92662 95.7012 7.02611 96.4804 7.22507C95.9001 4.35662 97.2763 2.15139 99.4484 2.15139C100.758 2.15139 101.604 2.96384 101.604 4.20739C101.604 5.4012 100.841 6.18049 99.7634 6.18049C98.5696 6.18049 98.4535 5.13591 97.923 5.13591C97.2763 5.13591 97.0608 6.16391 97.3095 7.47378C99.3821 8.28624 100.443 9.9443 100.443 12.4811C100.443 16.1952 98.1717 18.0522 93.8275 18.0522C92.6835 18.0522 91.6721 17.9196 90.8099 17.6709C89.8813 17.8533 89.4668 18.2512 89.4668 18.8481C89.4668 19.7601 90.2295 20.2741 93.1477 20.6886ZM93.8275 8.03753C92.0037 8.03753 91.2078 9.19817 91.2078 12.4811C91.2078 15.7973 92.0037 16.9413 93.8275 16.9413C95.6348 16.9413 96.4307 15.7973 96.4307 12.4811C96.4307 9.19817 95.6348 8.03753 93.8275 8.03753ZM93.9104 29.5758C97.1603 29.5758 98.6525 28.6805 98.6525 26.7903C98.6525 25.1819 97.2929 24.7011 94.5073 24.3529L91.7218 24.0047C91.4233 23.9715 91.1249 23.9218 90.843 23.8721C89.5497 24.4026 89.0855 25.1985 89.0855 26.4089C89.0855 28.4815 90.4782 29.5758 93.9104 29.5758Z" fill="#0C3237"/>
<ellipse cx="15.5953" cy="19.3036" rx="2.03008" ry="12.5403" transform="rotate(60 15.5953 19.3036)" fill="#0C3237"/>
<ellipse cx="11.0598" cy="11.4527" rx="2.29812" ry="12.5403" transform="rotate(44.969 11.0598 11.4527)" fill="#0C3237"/>
</svg>
